<svg xmlns="http://www.w3.org/2000/svg" width="1200" height="760" viewBox="0 0 1200 760" fill="none">
  <rect width="1200" height="760" rx="32" fill="#0F172A"/>
  <rect x="50" y="50" width="510" height="300" rx="30" fill="#111827" stroke="#334155"/>
  <text x="82" y="98" fill="#E2E8F0" font-family="Arial" font-size="28" font-weight="700">Staff Command Center</text>
  <rect x="82" y="130" width="210" height="90" rx="22" fill="#172554" stroke="#60A5FA"/>
  <text x="106" y="168" fill="#BFDBFE" font-family="Arial" font-size="16">Before AI Wait</text>
  <text x="106" y="205" fill="#F8FAFC" font-family="Arial" font-size="34" font-weight="700">25 min</text>
  <rect x="320" y="130" width="210" height="90" rx="22" fill="#052E16" stroke="#4ADE80"/>
  <text x="344" y="168" fill="#BBF7D0" font-family="Arial" font-size="16">After AI Wait</text>
  <text x="344" y="205" fill="#F8FAFC" font-family="Arial" font-size="34" font-weight="700">14 min</text>
  <rect x="82" y="245" width="448" height="75" rx="22" fill="#1E293B"/>
  <text x="106" y="290" fill="#F8FAFC" font-family="Arial" font-size="24" font-weight="700">Predicted bottleneck: North Gate in 3 minutes</text>
  <rect x="640" y="50" width="510" height="300" rx="30" fill="#F8FAFC" stroke="#CBD5E1"/>
  <text x="672" y="98" fill="#0F172A" font-family="Arial" font-size="28" font-weight="700">Fan Companion</text>
  <rect x="672" y="130" width="215" height="90" rx="22" fill="#E0F2FE" stroke="#38BDF8"/>
  <text x="696" y="168" fill="#0369A1" font-family="Arial" font-size="16">Best Route</text>
  <text x="696" y="205" fill="#0F172A" font-family="Arial" font-size="34" font-weight="700">Gate C</text>
  <rect x="910" y="130" width="208" height="90" rx="22" fill="#ECFCCB" stroke="#84CC16"/>
  <text x="934" y="168" fill="#4D7C0F" font-family="Arial" font-size="16">Impact</text>
  <text x="934" y="205" fill="#0F172A" font-family="Arial" font-size="34" font-weight="700">44% faster</text>
  <rect x="672" y="245" width="446" height="75" rx="22" fill="#EFF6FF"/>
  <text x="696" y="291" fill="#0F172A" font-family="Arial" font-size="22" font-weight="700">AI assistant uses personalization + safety rules</text>
  <rect x="50" y="410" width="1100" height="290" rx="30" fill="#111827" stroke="#334155"/>
  <text x="82" y="458" fill="#E2E8F0" font-family="Arial" font-size="28" font-weight="700">Hackathon Scoring Signals</text>
  <text x="82" y="512" fill="#94A3B8" font-family="Arial" font-size="22">1. Smart dynamic assistant with deterministic safety routing</text>
  <text x="82" y="550" fill="#94A3B8" font-family="Arial" font-size="22">2. Google Maps embed and Gemini-ready LLM narration</text>
  <text x="82" y="588" fill="#94A3B8" font-family="Arial" font-size="22">3. Persistent analytics, historical logs, and measurable before-vs-after metrics</text>
  <text x="82" y="626" fill="#94A3B8" font-family="Arial" font-size="22">4. Personalization, accessibility-aware routes, and offline fallback messaging</text>
</svg>
